<svg id="Layer_1" data-name="Layer 1" xmlns="http://www.w3.org/2000/svg" xmlns:xlink="http://www.w3.org/1999/xlink" viewBox="0 0 381.45 139.7"><defs><style>.cls-1{fill:#fff;}.cls-2{fill:#010202;}.cls-3{fill:#fcc93d;}.cls-4{fill:#c89e3f;}.cls-5{fill:#2e306d;}.cls-6{fill:#1d305b;}.cls-7{fill:url(#linear-gradient);}.cls-8{fill:#1b3b6b;}.cls-9{fill:#375fa2;}.cls-10{mask:url(#mask);}.cls-11{fill:#ffc93c;}.cls-12{fill:url(#linear-gradient-2);}.cls-13{fill:#0075b6;}.cls-14{fill:url(#linear-gradient-3);}.cls-15{fill:#7d7e6a;}.cls-16{mask:url(#mask-6);}.cls-17{fill:url(#linear-gradient-4);}.cls-18{fill:url(#linear-gradient-5);}.cls-19{fill:url(#linear-gradient-6);}.cls-20{fill:url(#linear-gradient-7);}</style><linearGradient id="linear-gradient" x1="-104" y1="321.8" x2="-104" y2="305.2" gradientTransform="matrix(1, 0, 0, -1, 412.6, 356.1)" gradientUnits="userSpaceOnUse"><stop offset="0" stop-color="#0e234b"/><stop offset="1" stop-color="#144c8e"/></linearGradient><mask id="mask" x="212.7" y="21.35" width="89.9" height="103.95" maskUnits="userSpaceOnUse"><g id="Mask_Mask_1" data-name="Mask Mask 1"><g id="Mask_Mask_M_Mask_0_Layer0_0_FILL" data-name="Mask Mask M Mask 0 Layer0 0 FILL"><path class="cls-1" d="M287.45,58.6a30.65,30.65,0,0,1,3.8-2.3l-5.5-34.95-30,1.5-6.4,3.3H234l-8.75,3.9-12.5,75.1,36.5,4.6,2.6,6,3.95-2.2L256.8,120l34.1,5.35,11.7-5.65-2.3-12.55a6.9,6.9,0,0,0-.75.05,27.48,27.48,0,0,1-4.45-.15,23.73,23.73,0,0,1-6.85-1.8l-1.85-.85a22.85,22.85,0,0,1-7.5-6.3,24.25,24.25,0,0,1-4.2-9,25.38,25.38,0,0,1,.45-13.25,31.89,31.89,0,0,1,6.7-12.1A26.34,26.34,0,0,1,287.45,58.6Z"/></g></g></mask><linearGradient id="linear-gradient-2" x1="-101.06" y1="317.95" x2="-111.69" y2="289.5" gradientTransform="matrix(1, 0, 0, -1, 340.8, 345)" gradientUnits="userSpaceOnUse"><stop offset="0" stop-color="#11437f"/><stop offset="1" stop-color="#0e234b"/></linearGradient><linearGradient id="linear-gradient-3" x1="-88.35" y1="298.51" x2="-71.57" y2="317.56" gradientTransform="matrix(1, 0, 0, -1, 279.85, 319.9)" gradientUnits="userSpaceOnUse"><stop offset="0" stop-color="#1a60a8"/><stop offset="1" stop-color="#0e234b"/></linearGradient><mask id="mask-6" x="101.25" y="14.5" width="108.3" height="113.9" maskUnits="userSpaceOnUse"><g id="Mask_Mask_2" data-name="Mask Mask 2"><g id="Mask_Mask_K_Mask_0_Layer0_0_FILL" data-name="Mask Mask K Mask 0 Layer0 0 FILL"><path class="cls-1" d="M171.05,70a25.87,25.87,0,0,1-.5-3.85h0l22.75-19L157.4,14.5,101.25,34.35l1.6,29.6,6.45-1.7,6.15,66.15,30.3-4.35,14-7.75v-6.55l36,17.9,13.8-7.9V91.8a42.9,42.9,0,0,1-5.55.8,34.18,34.18,0,0,1-6.45,0,31.93,31.93,0,0,1-13.9-4.55,27.39,27.39,0,0,1-10-10.55A25,25,0,0,1,171.05,70Z"/></g></g></mask><linearGradient id="linear-gradient-4" x1="-129.39" y1="308.03" x2="-127.11" y2="287.93" gradientTransform="matrix(1, 0, 0, -1, 240.35, 343.2)" gradientUnits="userSpaceOnUse"><stop offset="0" stop-color="#0e234d"/><stop offset="1" stop-color="#1a60a8"/></linearGradient><linearGradient id="linear-gradient-5" x1="-91.39" y1="282.63" x2="-82.69" y2="266.8" gradientTransform="matrix(1, 0, 0, -1, 187.5, 361.2)" gradientUnits="userSpaceOnUse"><stop offset="0" stop-color="#0f3f78"/><stop offset="1" stop-color="#0e234b"/></linearGradient><linearGradient id="linear-gradient-6" x1="-89.99" y1="296.75" x2="-76.34" y2="262.53" gradientTransform="matrix(1, 0, 0, -1, 125.85, 364.65)" gradientUnits="userSpaceOnUse"><stop offset="0" stop-color="#144a8c"/><stop offset="1" stop-color="#0e234b"/></linearGradient><linearGradient id="linear-gradient-7" x1="-123.38" y1="314.44" x2="-106.15" y2="288.54" gradientTransform="matrix(1, 0, 0, -1, 125.85, 364.65)" xlink:href="#linear-gradient-4"/></defs><g id="Layer7_0_FILL" data-name="Layer7 0 FILL"><path class="cls-2" d="M366.2,115.9h-.05a4.78,4.78,0,0,0-4.8,4.8,4.69,4.69,0,0,0,1.4,3.45,4.83,4.83,0,0,0,6.8,0,4.69,4.69,0,0,0,1.4-3.45,4.64,4.64,0,0,0-1.4-3.4,4.58,4.58,0,0,0-3.35-1.4m-.05.75h.05a3.51,3.51,0,0,1,2.7,1.2,4.23,4.23,0,0,1,0,5.8,3.37,3.37,0,0,1-2.7,1.15,3.68,3.68,0,0,1-2.75-1.2,4,4,0,0,1-1.15-2.9,3.87,3.87,0,0,1,1.15-2.85,3.51,3.51,0,0,1,2.7-1.2m1.8,5.55c-.17-.8-.47-1.23-.9-1.3v-.05a1.37,1.37,0,0,0,1.05-1.3,1.4,1.4,0,0,0-.5-1.15,2.88,2.88,0,0,0-1.7-.4,7.2,7.2,0,0,0-1.5.15v5.35h.85v-2.3h.6a1,1,0,0,1,1.15,1,4.37,4.37,0,0,0,.4,1.35h.85a4.92,4.92,0,0,1-.3-1.3m-2.7-1.65v-1.8l.6-.1c.9,0,1.35.32,1.35.95s-.45,1-1.35,1Z"/></g><g id="N_BAckground_0_Layer0_0_FILL" data-name="N BAckground 0 Layer0 0 FILL"><path class="cls-3" d="M356,48.2l-7.8,32.4-7.6-36.15-22.7-4.6-.35,6.25,5,1.3-5.95,62.3,13.2,2.1,6.05-34.3,1.05,44.5,12.1,3.55L373.25,52Z"/></g><g id="N_Shadows_0_Layer0_0_FILL" data-name="N Shadows 0 Layer0 0 FILL"><path class="cls-4" d="M340.55,44.45l-22.7-4.6-.2,3.65,19.8,4,7.65,36.15,3-3.05-7.6-36.15M335.8,77.5l-3.05,3L327.3,111.4l2.45.4,6.05-34.3m19.3-25.75,15,3.3-23.1,70,1.9.55L373.25,52,356,48.2Z"/></g><g id="N_Edge_0_Layer0_0_FILL" data-name="N Edge 0 Layer0 0 FILL"><path class="cls-5" d="M317.15,52.35l-5.95,3.3-7.5,62.9,6.4-3.4h0Z"/><path class="cls-6" d="M312,51.2l-6.45,3.3,5.7,1.15,5.95-3.3-5.2-1.2v.05m39.9-10.5-4.7,2.55,1.9,9Z"/><path class="cls-7" d="M305.25,35.3l.25,19.2L312,51.2v-.05L311.7,31.8Z"/><path class="cls-8" d="M353.05,133.55,331.2,126.7l-.15-8.6-20.9-2.95h0l-6.4,3.4,20.95,3,.2,8.5,21.7,6.9Z"/></g><g id="N_Border_0_Layer0_0_FILL" data-name="N Border 0 Layer0 0 FILL"><path class="cls-9" d="M381.45,47.9l-29.6-7.2-2.8,11.6-2.6-12.8L311.7,31.8l.2,19.35,5.25,1.2-7,62.8,20.95,2.95.15,8.6,21.85,6.85,28.4-85.65m-33.3,32.7L356,48.2l17.3,3.8L349,125.55,336.85,122,335.8,77.5l-6.05,34.3-13.2-2.1,5.95-62.3-5-1.3.35-6.25,22.7,4.6Z"/></g><g id="O_2_Background_0_Layer0_0_FILL" data-name="O 2 Background 0 Layer0 0 FILL"><path class="cls-3" d="M322.7,72a19.55,19.55,0,0,0-2.05-5,16.08,16.08,0,0,0-4.6-4.9,17.73,17.73,0,0,0-8.8-3.25,22.41,22.41,0,0,0-7.7.55c-.9.23-1.82.52-2.75.85a27.35,27.35,0,0,0-8.3,5.1A29.09,29.09,0,0,0,283.15,72q-4.61,8-2.75,15.85a17.33,17.33,0,0,0,13.75,13.25,19.51,19.51,0,0,0,5.4.35,26.29,26.29,0,0,0,12.65-4.7,26.42,26.42,0,0,0,6.2-6.15,24.87,24.87,0,0,0,4.2-9A20.6,20.6,0,0,0,322.7,72Z"/></g><g id="O_2_Shadows_0_Layer0_0_FILL" data-name="O 2 Shadows 0 Layer0 0 FILL"><path class="cls-4" d="M305.9,85.5a18.42,18.42,0,0,0,5.85-5.35.16.16,0,0,0-.1,0c-.37.37-.75.73-1.15,1.1a11.25,11.25,0,0,1-8.15,2.75,12.36,12.36,0,0,1-2.8-.4,11,11,0,0,1-5.05-3,9,9,0,0,1-2.65-7.6q.45-4.35,1.95-5.75c1-1,1-1.1.05-.4a13.81,13.81,0,0,0-3.4,3.95,11.8,11.8,0,0,0-1.95,5.4,9.79,9.79,0,0,0,3,7.65,11.37,11.37,0,0,0,7.85,3.35h.2a11.83,11.83,0,0,0,6.35-1.75M317.55,70a17.29,17.29,0,0,1,2.05,5,19.87,19.87,0,0,1-.05,9.6,25.24,25.24,0,0,1-4.25,9l-1.25,1.6q6.65-5.81,8.9-10.9,5.35-12.19-6.85-24.25-9.25-3-16.55-1.4a21.56,21.56,0,0,0-6.15,2.35,21.94,21.94,0,0,0-5.35,4.25c-1.2,1.57-1.87,2.42-2,2.55a26.93,26.93,0,0,1,7.65-4.55,25.53,25.53,0,0,1,5.85-1.45,24.12,24.12,0,0,1,4.65-.05,18.44,18.44,0,0,1,8.8,3.3,16.22,16.22,0,0,1,4.55,4.9m-7.1,4a5.51,5.51,0,0,0,2.2-4.2,7.41,7.41,0,0,0-.15-1.55q-.3.34-3.1,3a5.62,5.62,0,0,1,.2,1.6,6.68,6.68,0,0,1-.5,2.05,12.18,12.18,0,0,0,1.35-.9M305.4,63.4h-.15l-.6.05a6.88,6.88,0,0,0-3.75,1.75,6.62,6.62,0,0,0-.9,1,4.07,4.07,0,0,0-.45.8l-.1.2a.16.16,0,0,0,.1,0,6.33,6.33,0,0,1,2.75-.65A24.67,24.67,0,0,0,305.4,63.4Z"/></g><g id="O_2_Edge_0_Layer0_0_FILL" data-name="O 2 Edge 0 Layer0 0 FILL"><path class="cls-6" d="M294.5,54.8c.63-.23,1.27-.45,1.9-.65a23.11,23.11,0,0,0-4.75,1.55,31.37,31.37,0,0,0-7,4,26.19,26.19,0,0,0-5.5,5.4,32.24,32.24,0,0,0-6.6,12.6,26.53,26.53,0,0,0-1.1,7.8,22.94,22.94,0,0,0,.65,5.8,25.54,25.54,0,0,0,4,9.2,21.34,21.34,0,0,0,7.15,6.3l1.8.9a25.51,25.51,0,0,0,6.5,1.8q1.39,0,2.85.15c.4,0,.88-.05,1.45-.05a27.08,27.08,0,0,0,8.45-1.85c.83-.37,1.8-.85,2.9-1.45a24.18,24.18,0,0,0,3.95-2.3,28.12,28.12,0,0,1-2.85,1.25,30.36,30.36,0,0,1-8.8,1.9,27.48,27.48,0,0,1-4.45-.15,23.73,23.73,0,0,1-6.85-1.8l-1.85-.85a22.85,22.85,0,0,1-7.5-6.3,24.25,24.25,0,0,1-4.2-9,25.38,25.38,0,0,1,.45-13.25,31.89,31.89,0,0,1,6.7-12.1,26.34,26.34,0,0,1,5.6-5A33,33,0,0,1,294.5,54.8Z"/></g><g id="O_2_Border_0_Layer0_0_FILL" data-name="O 2 Border 0 Layer0 0 FILL"><path class="cls-9" d="M321.4,59.1a18.23,18.23,0,0,0-4.6-3.3c-.1,0-.15,0-.15-.1A25.22,25.22,0,0,0,306,52.9a26.35,26.35,0,0,0-6.45.5,28.14,28.14,0,0,0-5.05,1.4,33,33,0,0,0-7.05,3.8,26.34,26.34,0,0,0-5.6,5,31.89,31.89,0,0,0-6.7,12.1A25.38,25.38,0,0,0,274.7,89a24.25,24.25,0,0,0,4.2,9,22.85,22.85,0,0,0,7.5,6.3l1.85.85a23.73,23.73,0,0,0,6.85,1.8,27.48,27.48,0,0,0,4.45.15,30.36,30.36,0,0,0,8.8-1.9,21.5,21.5,0,0,0,3-1.35,23.61,23.61,0,0,0,6.15-4.05,32.17,32.17,0,0,0,9.5-13.4,26.53,26.53,0,0,0,1.15-15.75,22,22,0,0,0-6.75-11.6m-5.35,2.95a16.08,16.08,0,0,1,4.6,4.9,19.55,19.55,0,0,1,2.05,5,20.6,20.6,0,0,1-.1,9.65,24.87,24.87,0,0,1-4.2,9,26.42,26.42,0,0,1-6.2,6.15,26.29,26.29,0,0,1-12.65,4.7,19.51,19.51,0,0,1-5.4-.35A17.33,17.33,0,0,1,280.4,87.8Q278.56,80,283.15,72a29.09,29.09,0,0,1,5.35-6.65,27.35,27.35,0,0,1,8.3-5.1c.93-.33,1.85-.62,2.75-.85a22.41,22.41,0,0,1,7.7-.55,17.73,17.73,0,0,1,8.8,3.25m-11.4,1.4.6-.05h.1a15.26,15.26,0,0,0-2.05-.25,11.5,11.5,0,0,0-3.75.4,10.42,10.42,0,0,0-4.4,2.3,4.17,4.17,0,0,1-.4.35,9.46,9.46,0,0,0-3.2,6.75,10,10,0,0,0,2.95,7.7,11,11,0,0,0,5.05,3,12.36,12.36,0,0,0,2.8.4,11.25,11.25,0,0,0,8.15-2.75c.4-.37.78-.73,1.15-1.1a10.18,10.18,0,0,0,2.45-6.35,9.35,9.35,0,0,0-1.55-5.55.16.16,0,0,1-.05-.1,0,0,0,0,1-.05,0,.14.14,0,0,0,.05.1,7.41,7.41,0,0,1,.15,1.55,5.51,5.51,0,0,1-2.2,4.2,12.18,12.18,0,0,1-1.35.9,7.83,7.83,0,0,1-3.55.7,7.12,7.12,0,0,1-4.8-1.95,6.63,6.63,0,0,1-1.2-1.6,5.82,5.82,0,0,1-.6-2.8,5.27,5.27,0,0,1,.6-2.3,4.66,4.66,0,0,1,.45-.75,6.62,6.62,0,0,1,.9-1A6.88,6.88,0,0,1,304.65,63.45Z"/></g><g class="cls-10"><g id="M_Background_0_Layer0_0_FILL" data-name="M Background 0 Layer0 0 FILL"><path class="cls-11" d="M265.2,31.9,260.55,58l-4.1-22.5H240l-7.45,44.35v0l-2.3,13.65L246.6,96.3l3.85-24.45h.1l9.8,21.1,6.55-16.9,4.6,30.65,17.4,2.65L277,31.9Z"/></g></g><g class="cls-10"><g id="M_Edge_0_Layer0_0_FILL" data-name="M Edge 0 Layer0 0 FILL"><path class="cls-8" d="M250.5,103.15l2.35,6.8,5-2.75,1,8.3,31.55,5.6,6.3-3.5-31.45-5.55-1.6-14-4.4,8.5L252.05,93.2l-1.55,10m-34.15-1.05,27.8,4.45,6.35-3.4L222.75,98.8Z"/><path class="cls-12" d="M234.1,29.3l-6.3,3.45L216.35,102.1l6.4-3.3Z"/><path class="cls-13" d="M258.45,29.3l.75-3.85-7.45,3.85Z"/></g></g><g class="cls-10"><g id="M_Shadows_0_Layer0_0_FILL" data-name="M Shadows 0 Layer0 0 FILL"><path class="cls-4" d="M259.3,90.75l1.05,2.2,6.55-16.9-3.1,3.1-4.5,11.6M247.4,74.9l-3.35,21,2.55.4,3.85-24.5-3,3.1M240,35.5l-.55,3h14l4.1,22.5,3.05-3-4.1-22.5H240M277,31.9H265.2l-.55,3.1h9.25l11.15,73.85,3.85.5Z"/></g></g><g class="cls-10"><g id="M_Shadow_0_Layer0_0_FILL" data-name="M Shadow 0 Layer0 0 FILL"><path class="cls-4" d="M278.8,66.75a31.92,31.92,0,0,0-6.7,12,25.56,25.56,0,0,0-.45,13.3,23.74,23.74,0,0,0,4.2,9,22.25,22.25,0,0,0,7.5,6.3,12.52,12.52,0,0,0,1.85.9l3.7,1-7-45.7C281,64.48,280,65.52,278.8,66.75Z"/></g></g><g class="cls-10"><g id="M_Border_0_Layer0_0_FILL" data-name="M Border 0 Layer0 0 FILL"><path class="cls-9" d="M265.3,112.05l31.45,5.55L282.2,25.5H259.1l-.65,3.8H234.1L222.75,98.8l27.75,4.35,1.55-10,7.25,13.35,4.4-8.5,1.6,14m-4.75-54,4.65-26.1H277l11.95,77.45-17.4-2.65-4.6-30.65L260.35,93l-9.8-21.1h-.1L246.6,96.3l-16.35-2.85,2.3-13.65v0L240,35.5h16.45Z"/></g></g><g id="E_Background_0_Layer0_0_FILL" data-name="E Background 0 Layer0 0 FILL"><path class="cls-3" d="M197.45,40.1A28.86,28.86,0,0,0,186,45.6a11.65,11.65,0,0,0-1.25,1l-.1.1a20.45,20.45,0,0,0-2.75,2.9,9.69,9.69,0,0,0-.85,1.1,21.49,21.49,0,0,0-3.7,8.7,24.89,24.89,0,0,0,.3,10.35,21.94,21.94,0,0,0,1.1,3.2v0A20.27,20.27,0,0,0,188,83l.4.2a25.38,25.38,0,0,0,5.75,2.2,28.26,28.26,0,0,0,3.45.6,29.75,29.75,0,0,0,6.4,0,32.87,32.87,0,0,0,4.75-.8c.33-.07.67-.15,1-.25a42.1,42.1,0,0,0,16.85-8.2,37,37,0,0,0,3.5-3.25l-11-10a26.44,26.44,0,0,1-4.25,4,17.62,17.62,0,0,1-6.15,2.8,14.11,14.11,0,0,1-5.45.5L224.45,48.2a24.09,24.09,0,0,0-11.55-7.8,28.81,28.81,0,0,0-15.45-.3m-2.2,15.8a.48.48,0,0,0,.1-.15,7.77,7.77,0,0,1,8.45-2,.49.49,0,0,1,.2,0l-9.7,11a7.71,7.71,0,0,1-1-4.65,7.82,7.82,0,0,1,1.9-4.25m23.1-36-7.6-10.35L195.1,28.4l1.5,2.3Z"/></g><g id="E_Edges_0_Layer0_0_FILL" data-name="E Edges 0 Layer0 0 FILL"><path class="cls-6" d="M190.3,35.45,185.85,30l-6.55,3.35,4.4,5.1-.55.3q-11.35,6.41-14.7,17.7a31.85,31.85,0,0,0,0,18.35,29.85,29.85,0,0,0,7.45,11.75q9.56,9.65,24.1,9.75A36.29,36.29,0,0,0,222.45,88c.57-.5,1.12-1,1.65-1.55l-.6.3-2.8,1.35a63.42,63.42,0,0,1-13.1,4.1,29,29,0,0,1-3.6.45,34.18,34.18,0,0,1-6.45,0,31.93,31.93,0,0,1-13.9-4.55,27.39,27.39,0,0,1-10-10.55,25,25,0,0,1-2.65-7.5,31.55,31.55,0,0,1-.45-9.15,31.16,31.16,0,0,1,9.15-18.65A30.28,30.28,0,0,1,184,38.85,37.88,37.88,0,0,1,190.3,35.45Z"/><path class="cls-14" d="M211.85,0,205.5,3.3,179.3,33.35,185.85,30Z"/></g><g id="E_Edge_0_Layer0_0_FILL" data-name="E Edge 0 Layer0 0 FILL"><path class="cls-15" d="M204,53.75a.49.49,0,0,0-.2,0,7.77,7.77,0,0,0-8.45,2,.16.16,0,0,0,0,.1,12.1,12.1,0,0,1,2.1-.45,11.22,11.22,0,0,1,4.8.4Z"/></g><g id="E_Shadows_0_Layer0_0_FILL" data-name="E Shadows 0 Layer0 0 FILL"><path class="cls-4" d="M189,61.6a11.46,11.46,0,0,1,2.55-8,18.54,18.54,0,0,1,1-2.15A13.81,13.81,0,0,0,187,61.9a12.46,12.46,0,0,0,3.8,9.85,3.12,3.12,0,0,0,.5.4l2.3-1.6A5.76,5.76,0,0,1,193,70,11.82,11.82,0,0,1,189,61.6m30.05,1.9L216,66.6l10.9,9.85c1.17-1,2.23-2,3.2-3l-11-10m-3.4,3.4-.85.65a17.62,17.62,0,0,1-6.15,2.8,14.11,14.11,0,0,1-5.45.5l-3,3.2a16.87,16.87,0,0,0,5.35-.65,17.51,17.51,0,0,0,6-2.65,23,23,0,0,0,4.1-3.85m-5.8-23.4a23.65,23.65,0,0,1,11.6,8l3-3.25a24.09,24.09,0,0,0-11.55-7.8A30.41,30.41,0,0,0,186,45.6a11.65,11.65,0,0,0-1.25,1l-.1.1a21.82,21.82,0,0,0-2.15,2.15l-.25.35a30.63,30.63,0,0,1,27.6-5.7m8.5-23.6-7.6-10.35L207.9,13l6.55,8.9Z"/></g><g id="E_Border_0_Layer0_0_FILL" data-name="E Border 0 Layer0 0 FILL"><path class="cls-9" d="M226.25,21.5,211.85,0l-26,30,4.45,5.45a35,35,0,0,0-10.55,6.75,31.16,31.16,0,0,0-9.15,18.65,31.55,31.55,0,0,0,.45,9.15,25,25,0,0,0,2.65,7.5,27.39,27.39,0,0,0,10,10.55,31.93,31.93,0,0,0,13.9,4.55,34.18,34.18,0,0,0,6.45,0,37.33,37.33,0,0,0,6.3-1,50.73,50.73,0,0,0,14.85-5.85,31.29,31.29,0,0,0,7.6-5.75l7.1-7.2-5.1-4.6v0l-5.85-5.3v0l-4.55-4.1,6.3-6.7v.1l2.45-2.65a11.64,11.64,0,0,0-1.55-3l-2-2.5A30.38,30.38,0,0,0,219,35.7a32.21,32.21,0,0,0-13.35-3.1l20.65-11.1M210.75,9.55l7.6,10.35L196.6,30.7l-1.5-2.3L210.75,9.55M186,45.6a30.41,30.41,0,0,1,26.9-5.2,24.09,24.09,0,0,1,11.55,7.8L203.2,70.85a14.11,14.11,0,0,0,5.45-.5,17.62,17.62,0,0,0,6.15-2.8,26.44,26.44,0,0,0,4.25-4l11,10a37,37,0,0,1-3.5,3.25,43,43,0,0,1-16.85,8.2l-1,.25A32.87,32.87,0,0,1,204,86a34.2,34.2,0,0,1-6.4,0,25,25,0,0,1-9.2-2.8L188,83a20,20,0,0,1-9.25-10v0a22.89,22.89,0,0,1-1.4-13.55,21.49,21.49,0,0,1,3.7-8.7,10.52,10.52,0,0,1,.85-1.1,21.15,21.15,0,0,1,2.75-2.9l.1-.1,1.25-1m6.2,7.25c-.23.27-.45.53-.65.8a11.46,11.46,0,0,0-2.55,8A11.82,11.82,0,0,0,193,70a5.76,5.76,0,0,0,.65.55c.17.13.38.28.65.45L210.2,53l-.85-.85a12.08,12.08,0,0,0-17.15.75m11.6.85a.49.49,0,0,1,.2,0l-9.7,11a7.71,7.71,0,0,1-1-4.65,7.82,7.82,0,0,1,1.9-4.25.48.48,0,0,0,.1-.15,7.77,7.77,0,0,1,8.45-2Z"/></g><g class="cls-16"><g id="K_Background_0_Layer0_0_FILL" data-name="K Background 0 Layer0 0 FILL"><path class="cls-3" d="M174.8,46.9,159.5,32.35,143.9,54.3l-1.3-21.9-21.2,6.35.25,5.65,5.95-1.5,5.6,66.9,13.2-1.8-.05-26.75L197.4,106.8V86.5l-44-17.1Z"/></g></g><g class="cls-16"><g id="K_Edge_0_Layer0_0_FILL" data-name="K Edge 0 Layer0 0 FILL"><path class="cls-8" d="M152.4,91.6v6.55l45,22.35,6.4-3.45h0Z"/><path class="cls-6" d="M149.65,27.8l-.2,9.35,7.8-14.95-6.4,3.45-1.2,2.15M109.3,56.05l6-1.5,6,66.2,24.5-3.65,6.55-3.4-24.6,3.6-6.15-66.15-6,1.5Z"/><path class="cls-17" d="M114.85,33.9l-6.45,3.5.9,18.65,6.4-3.4Z"/></g></g><g class="cls-16"><g id="K_Shadows_0_Layer0_0_FILL" data-name="K Shadows 0 Layer0 0 FILL"><path class="cls-4" d="M143.35,108.45l3.05-.45-.05-26.75-3.1,3.2.1,24m.55-54.2L142.6,32.4l-21.2,6.35,0,2.1,18.1-5.35,1.3,23,3.05-4.25M170.4,80.4a27.47,27.47,0,0,0,9.95,10.5,31.65,31.65,0,0,0,14,4.55v9.8l3.1,1.55V86.5l-44-17.1-2.85,3,19.8,8M171.9,50l2.9-3.05L159.5,32.35,157,35.9Z"/></g></g><g class="cls-16"><g id="K_Border_0_Layer0_0_FILL" data-name="K Border 0 Layer0 0 FILL"><path class="cls-9" d="M163.75,67.05l20.8-20.45-27.3-24.4-7.8,15,.3-14.4L114.85,33.9l.85,18.75,6-1.5,6.15,66.15,24.6-3.6V91.6l51.4,25.45V82.5L163.75,67.05m-4.25-34.7L174.8,46.9,153.45,69.4l44,17.1v20.3L146.35,81.25,146.4,108l-13.2,1.8-5.6-66.9-5.95,1.5-.25-5.65,21.2-6.35,1.3,21.9Z"/></g></g><g id="O_1_Edge_0_Layer0_0_FILL" data-name="O 1 Edge 0 Layer0 0 FILL"><path class="cls-18" d="M132.5,84.9V84a27.73,27.73,0,0,1-5.4,14.25,29.79,29.79,0,0,1-12.8,10.3q-9.9,4.2-18.65.55A19.15,19.15,0,0,1,84.3,96q-2.55-9,2.6-18.55a29.73,29.73,0,0,1,14.75-13.6,25.87,25.87,0,0,1,12.1-2.1,20.1,20.1,0,0,1,8.9,2.6,22.92,22.92,0,0,0-12.1-4.55,7.36,7.36,0,0,0-1.8-.15h-.4A27.34,27.34,0,0,0,95.7,62.2a34.46,34.46,0,0,0-17.85,17A30.25,30.25,0,0,0,74,94.6a25.24,25.24,0,0,0,1.3,7.45q3.45,11.15,13.85,15.4a26.2,26.2,0,0,0,9.75,1.85,36.16,36.16,0,0,0,11.9-2.5,36.58,36.58,0,0,0,14.85-12,35.46,35.46,0,0,0,6.85-18.2,5.34,5.34,0,0,1,0-1Z"/></g><g id="O_1_Background_0_Layer0_0_FILL" data-name="O 1 Background 0 Layer0 0 FILL"><path class="cls-3" d="M130.2,76.85a17.16,17.16,0,0,0-7.1-9.95,18.51,18.51,0,0,0-9.45-3.2,23.69,23.69,0,0,0-11.1,2A27.24,27.24,0,0,0,89,78.15q-4.76,8.75-2.4,17.1A17.64,17.64,0,0,0,97,107.35q8.06,3.34,17.2-.5A27.48,27.48,0,0,0,126,97.35a25.37,25.37,0,0,0,5-14.15,19,19,0,0,0-.45-5Z"/></g><g id="O_1_Shadows_0_Layer0_0_FILL" data-name="O 1 Shadows 0 Layer0 0 FILL"><path class="cls-4" d="M108.45,70.85a5.2,5.2,0,0,0-1.2,1.65l-.1.2a6.58,6.58,0,0,1,2.6-.7s1-1,3-3.1a7.06,7.06,0,0,0-4.35,1.95m5,20.45a15.3,15.3,0,0,0,6.1-5.65l-.9.9a11.32,11.32,0,0,1-7.9,3.1h-.15a11.08,11.08,0,0,1-8-3.1A10,10,0,0,1,99.4,79v0a9.4,9.4,0,0,1,3.3-7.2,2.52,2.52,0,0,1,.35-.3,16.39,16.39,0,0,0-5,5,10.46,10.46,0,0,0-1.75,5.6,9.93,9.93,0,0,0,3.4,7.55,11.34,11.34,0,0,0,8,3.15,12.33,12.33,0,0,0,5.7-1.5m14-11.45.35,1.4a26.82,26.82,0,0,1,.4,5,25.7,25.7,0,0,1-5,14.35,3.94,3.94,0,0,0-.4.55,30.14,30.14,0,0,0,3.2-3.8,25.37,25.37,0,0,0,5-14.15,19,19,0,0,0-.45-5l-.35-1.4a17.16,17.16,0,0,0-7.1-9.95,18.51,18.51,0,0,0-9.45-3.2,23.69,23.69,0,0,0-11.1,2,27,27,0,0,0-9.5,6.7,30.59,30.59,0,0,1,6.45-3.9,23.83,23.83,0,0,1,11.15-2,19.63,19.63,0,0,1,9.65,3.25,17.45,17.45,0,0,1,7.15,10.1m-10,.15a7.85,7.85,0,0,0,.9-.7,5.6,5.6,0,0,0,2-4.3,4.92,4.92,0,0,0-.25-1.6,38.16,38.16,0,0,1-3,3,5.58,5.58,0,0,1,.25,1.6,5,5,0,0,1-.55,2.3A7.61,7.61,0,0,0,117.45,80Z"/></g><g id="O_1_Border_0_Layer0_0_FILL" data-name="O 1 Border 0 Layer0 0 FILL"><path class="cls-9" d="M122.55,60.65a25.88,25.88,0,0,0-11-2.25,29.91,29.91,0,0,0-11.55,2.45,34.13,34.13,0,0,0-6.25,3.6q-11.65,8.89-13.65,22.6a24.3,24.3,0,0,0,.75,10.2,24.75,24.75,0,0,0,4.75,9.2,23.57,23.57,0,0,0,8,6.3,24.83,24.83,0,0,0,11.1,2.5,29.13,29.13,0,0,0,11.75-2.5,31.49,31.49,0,0,0,10.2-6.85,28.55,28.55,0,0,0,5.55-7.1,31.33,31.33,0,0,0,4-11.2,27.21,27.21,0,0,0-.6-11.6,24.44,24.44,0,0,0-6.25-10.65,21.65,21.65,0,0,0-7-4.7m-8.9,3.05a18.51,18.51,0,0,1,9.45,3.2,17.16,17.16,0,0,1,7.1,9.95l.35,1.4a19,19,0,0,1,.45,5,25.37,25.37,0,0,1-5,14.15,27.48,27.48,0,0,1-11.75,9.5q-9.15,3.86-17.2.5a17.64,17.64,0,0,1-10.45-12.1Q84.2,86.9,89,78.15a27.24,27.24,0,0,1,13.6-12.5,23.69,23.69,0,0,1,11.1-2m-.85,5.2a14.86,14.86,0,0,0-2-.2,11.44,11.44,0,0,0-8,3A9.45,9.45,0,0,0,99.4,79a10,10,0,0,0,3.3,7.55,11.08,11.08,0,0,0,8,3.1,11.3,11.3,0,0,0,8-3.1A10,10,0,0,0,122,79a9.06,9.06,0,0,0-1.85-5.6,4.92,4.92,0,0,1,.25,1.6,5.6,5.6,0,0,1-2,4.3,7.43,7.43,0,0,1-9.7,0,5.65,5.65,0,0,1-.2-8.45A7.06,7.06,0,0,1,112.8,68.9Z"/></g><g id="P_Edge_0_Layer0_0_FILL" data-name="P Edge 0 Layer0 0 FILL"><path class="cls-19" d="M17,80.3l6.4-2.75L50.8,139.7l26-8.4,6.45-4.25-26,8.3L28.7,71.8,22.3,75Z"/><path class="cls-20" d="M22.3,75l-17-28.8L0,51.55,17,80.3Z"/></g><g id="P_Background_0_Layer0_0_FILL" data-name="P Background 0 Layer0 0 FILL"><path class="cls-11" d="M86.3,50.55A23.23,23.23,0,0,0,76,39.4a24.47,24.47,0,0,0-11-3.75,53.58,53.58,0,0,0-17.25,0,78.65,78.65,0,0,0-19.7,5.7,94.17,94.17,0,0,0-13.55,7L25,66.05l7.1-3.5L61,127l14-4.5L66.3,89.15q12.4-7.65,18.15-18.8t1.85-19.8M70.65,63.4a11.6,11.6,0,0,1,0,4.55,14.52,14.52,0,0,1-4.25,5.3l-3.55-11.1c-.53-1.57-.83-2.48-.9-2.75a9.57,9.57,0,0,1,5.8.55,5,5,0,0,1,2.9,3.45M62.8,61.75c.13.33.18.4.15.2a1.63,1.63,0,0,1-.15-.4Z"/></g><g id="P_Shadow_0_Layer0_0_FILL" data-name="P Shadow 0 Layer0 0 FILL"><path class="cls-15" d="M70.65,63.4A5,5,0,0,0,67.75,60,9.57,9.57,0,0,0,62,59.4l.6,2.1a11.33,11.33,0,0,1,2.65.65,4.21,4.21,0,0,1,2.9,3.45,10,10,0,0,1-.7,7A13.06,13.06,0,0,0,70.65,68,11.6,11.6,0,0,0,70.65,63.4Z"/></g><g id="P_Shadows_0_Layer0_0_FILL" data-name="P Shadows 0 Layer0 0 FILL"><path class="cls-4" d="M63,91.5l8.6,32.1L75,122.5,66.3,89.2,63,91.5M56.15,57l-2.25,1.9L61.4,83.5a55,55,0,0,0,4.9-3.65c-.83.57-1.72,1.15-2.65,1.75L56.15,57M72.9,42.5A23.27,23.27,0,0,1,83.25,53.65Q86,60,83.75,67.9A36.27,36.27,0,0,1,76.3,81.4a44.51,44.51,0,0,0,8.15-11.05Q90.1,59.3,86.3,50.55A23.23,23.23,0,0,0,76,39.4a24.47,24.47,0,0,0-11-3.75,53.58,53.58,0,0,0-17.25,0,78.65,78.65,0,0,0-19.7,5.7,94.17,94.17,0,0,0-13.55,7l.55.9a83.53,83.53,0,0,1,10-4.9,81.25,81.25,0,0,1,19.7-5.7A53.59,53.59,0,0,1,62,38.7,25.23,25.23,0,0,1,72.9,42.5Z"/></g><g id="P_Border_0_Layer0_0_FILL" data-name="P Border 0 Layer0 0 FILL"><path class="cls-9" d="M87.3,39.7a29.3,29.3,0,0,0-7.55-6A30.56,30.56,0,0,0,66.2,28.9a60.15,60.15,0,0,0-19.6,0,88.25,88.25,0,0,0-21.25,6.15,104,104,0,0,0-14.55,7.6l-5.55,3.5L22.3,75l6.4-3.15,28.5,63.55,26.05-8.3L74.15,92.1a56.36,56.36,0,0,0,6-5A57,57,0,0,0,93.8,64.45a26,26,0,0,0-1.25-16.6A29.61,29.61,0,0,0,87.3,39.7M76,39.4A23.23,23.23,0,0,1,86.3,50.55q3.8,8.75-1.85,19.8A44.51,44.51,0,0,1,76.3,81.4a55.44,55.44,0,0,1-10,7.75v0L75,122.5,61,127,32.05,62.55,25,66.05,14.5,48.4a94.17,94.17,0,0,1,13.55-7,78.65,78.65,0,0,1,19.7-5.7,53.58,53.58,0,0,1,17.25,0A24.47,24.47,0,0,1,76,39.4M68.5,55.5q-5.81-2-12.1,1.35l-.25.1,7.5,24.65c.93-.6,1.82-1.18,2.65-1.75a31.54,31.54,0,0,0,6.3-5.75,13.76,13.76,0,0,0,2.6-11.35q-1-5.36-6.7-7.25m-5.2,7.75c-.1-.43-.22-.87-.35-1.3-.17-.6-.35-1.22-.55-1.85a8.26,8.26,0,0,1,5.15.5,4.36,4.36,0,0,1,2.6,3,10.21,10.21,0,0,1,0,4.05,6.52,6.52,0,0,1-.4,1.15,12.51,12.51,0,0,1-3.35,4.4Z"/></g></svg>